<svg xmlns="http://www.w3.org/2000/svg" version="1.1" xmlns:xlink="http://www.w3.org/1999/xlink" xmlns:svgjs="http://svgjs.dev/svgjs" width="1000" height="328" viewBox="0 0 1000 328"><g transform="matrix(1,0,0,1,-0.6060606060606233,-0.5728879936995668)"><svg viewBox="0 0 396 130" data-background-color="#ffffff" preserveAspectRatio="xMidYMid meet" height="328" width="1000" xmlns="http://www.w3.org/2000/svg" xmlns:xlink="http://www.w3.org/1999/xlink"><g id="tight-bounds" transform="matrix(1,0,0,1,0.2400000000000091,0.22705926579556035)"><svg viewBox="0 0 395.52 129.54588146840885" height="129.54588146840885" width="395.52"><g><svg viewBox="0 0 660.7651312877063 216.4224347093821" height="129.54588146840885" width="395.52"><g transform="matrix(1,0,0,1,263.2675312877064,48.645233562428324)"><svg viewBox="0 0 397.4975999999999 119.13196758452544" height="119.13196758452544" width="397.4975999999999"><g id="textblocktransform"><svg viewBox="0 0 397.4975999999999 119.13196758452544" height="119.13196758452544" width="397.4975999999999" id="textblock"><g><rect width="397.4975999999999" height="6.728553534303857" x="0" y="82.53793365524803" fill="#ea3c12" opacity="1" stroke-width="0" stroke="transparent" fill-opacity="1" class="rect-r$-0" data-fill-palette-color="primary" rx="1%" id="r$-0" data-palette-color="#ea3c12"></rect></g><g transform="matrix(1,0,0,1,0.9887999999999693,0)"><svg viewBox="0 0 395.52 74.61162713578013" height="74.61162713578013" width="395.52"><g transform="matrix(1,0,0,1,0,0)"><svg width="395.52" viewBox="2.3 -33.55 208.8413879394531 39.4" height="74.61162713578013" data-palette-color="#ea3c12"><g transform="matrix(1,0,0,1,0,0)"><g><svg width="6.34092529296875" viewBox="3.16 -36.36 28.68 36.36" height="8.041" data-palette-color="#ea3c12" id="scriptelement" x="204.80046264648436" y="-8.041"><path d="M10.85 0L3.16 0 3.16-36.36 17.51-36.36Q21.63-36.36 24.55-34.9 27.47-33.43 29-30.76 30.54-28.09 30.54-24.49L30.54-24.49Q30.54-20.86 28.98-18.26 27.41-15.66 24.46-14.28 21.5-12.89 17.31-12.89L17.31-12.89 7.71-12.89 7.71-19.07 16.07-19.07Q18.27-19.07 19.73-19.67 21.18-20.28 21.9-21.48 22.62-22.69 22.62-24.49L22.62-24.49Q22.62-26.3 21.9-27.54 21.18-28.78 19.72-29.43 18.25-30.08 16.03-30.08L16.03-30.08 10.85-30.08 10.85 0ZM14.51-16.55L22.8-16.55 31.84 0 23.35 0 14.51-16.55Z" opacity="1" transform="matrix(1,0,0,1,0,0)" fill="#ea3c12" class="undefined-123" data-fill-palette-color="primary" id="lv-123"></path></svg></g></g><path d="M13.45 0.6L13.45 0.6Q9.85 0.6 7.05-0.78 4.25-2.15 2.3-4.35L2.3-4.35 3.8-5.95Q5.6-3.9 8.1-2.7 10.6-1.5 13.45-1.5L13.45-1.5Q17.25-1.5 19.45-3.33 21.65-5.15 21.65-8.1L21.65-8.1Q21.65-9.65 21.18-10.73 20.7-11.8 19.9-12.58 19.1-13.35 18.03-13.9 16.95-14.45 15.75-15L15.75-15 10.75-17.25Q9.7-17.7 8.5-18.35 7.3-19 6.33-19.98 5.35-20.95 4.7-22.28 4.05-23.6 4.05-25.45L4.05-25.45Q4.05-27.25 4.78-28.73 5.5-30.2 6.78-31.28 8.05-32.35 9.83-32.95 11.6-33.55 13.65-33.55L13.65-33.55Q16.65-33.55 18.98-32.38 21.3-31.2 22.8-29.6L22.8-29.6 21.5-28.1Q20.05-29.6 18.1-30.53 16.15-31.45 13.65-31.45L13.65-31.45Q10.35-31.45 8.35-29.85 6.35-28.25 6.35-25.55L6.35-25.55Q6.35-24.1 6.9-23.1 7.45-22.1 8.3-21.38 9.15-20.65 10.15-20.13 11.15-19.6 12.05-19.2L12.05-19.2 17.05-17Q18.45-16.4 19.7-15.65 20.95-14.9 21.9-13.9 22.85-12.9 23.43-11.53 24-10.15 24-8.25L24-8.25Q24-6.35 23.25-4.73 22.5-3.1 21.13-1.93 19.75-0.75 17.8-0.08 15.85 0.6 13.45 0.6ZM33.2 0L30.9 0 30.9-32.95 39.2-32.95Q42-32.95 44.22-32.48 46.45-32 47.97-30.9 49.5-29.8 50.32-28.05 51.15-26.3 51.15-23.75L51.15-23.75Q51.15-18.9 48.05-16.53 44.95-14.15 39.4-14.15L39.4-14.15 33.2-14.15 33.2 0ZM33.2-31L33.2-16.1 38.85-16.1Q43.9-16.1 46.35-17.9 48.8-19.7 48.8-23.75L48.8-23.75Q48.8-27.9 46.27-29.45 43.75-31 38.65-31L38.65-31 33.2-31ZM60.95 0.6L60.95 0.6Q59.5 0.6 58.25 0.2 57-0.2 56.05-1 55.1-1.8 54.55-3.05 54-4.3 54-6L54-6Q54-10 57.72-12.08 61.45-14.15 69.5-15.05L69.5-15.05Q69.5-16.4 69.3-17.78 69.09-19.15 68.45-20.23 67.8-21.3 66.7-21.98 65.59-22.65 63.8-22.65L63.8-22.65Q61.4-22.65 59.4-21.7 57.4-20.75 56.15-19.85L56.15-19.85 55.15-21.5Q55.8-21.95 56.72-22.5 57.65-23.05 58.8-23.5 59.95-23.95 61.3-24.28 62.65-24.6 64.09-24.6L64.09-24.6Q66.2-24.6 67.65-23.88 69.09-23.15 70-21.9 70.9-20.65 71.3-18.98 71.7-17.3 71.7-15.35L71.7-15.35 71.7 0 69.8 0 69.59-3.1 69.45-3.1Q67.59-1.65 65.47-0.53 63.35 0.6 60.95 0.6ZM61.35-1.3L61.35-1.3Q63.45-1.3 65.34-2.3 67.25-3.3 69.5-5.2L69.5-5.2 69.5-13.35Q65.8-12.9 63.25-12.25 60.7-11.6 59.15-10.7 57.6-9.8 56.92-8.65 56.25-7.5 56.25-6.1L56.25-6.1Q56.25-4.8 56.65-3.9 57.05-3 57.75-2.43 58.45-1.85 59.37-1.58 60.3-1.3 61.35-1.3ZM89.14 0.6L89.14 0.6Q86.79 0.6 84.82-0.25 82.84-1.1 81.37-2.7 79.89-4.3 79.07-6.63 78.24-8.95 78.24-11.95L78.24-11.95Q78.24-14.95 79.14-17.32 80.04-19.7 81.54-21.3 83.04-22.9 85.02-23.75 86.99-24.6 89.19-24.6L89.19-24.6Q91.69-24.6 93.34-23.7 94.99-22.8 96.24-21.65L96.24-21.65 94.94-20.1Q93.79-21.2 92.39-21.93 90.99-22.65 89.24-22.65L89.24-22.65Q87.39-22.65 85.82-21.88 84.24-21.1 83.07-19.68 81.89-18.25 81.22-16.3 80.54-14.35 80.54-11.95L80.54-11.95Q80.54-9.6 81.17-7.65 81.79-5.7 82.92-4.3 84.04-2.9 85.67-2.13 87.29-1.35 89.24-1.35L89.24-1.35Q91.14-1.35 92.77-2.15 94.39-2.95 95.64-4.1L95.64-4.1 96.79-2.55Q95.24-1.2 93.34-0.3 91.44 0.6 89.14 0.6ZM110.94 0.6L110.94 0.6Q108.64 0.6 106.62-0.25 104.59-1.1 103.09-2.73 101.59-4.35 100.72-6.68 99.84-9 99.84-11.95L99.84-11.95Q99.84-14.9 100.72-17.25 101.59-19.6 103.07-21.23 104.54-22.85 106.42-23.73 108.29-24.6 110.29-24.6L110.29-24.6Q114.59-24.6 117.04-21.7 119.49-18.8 119.49-13.5L119.49-13.5Q119.49-13.05 119.49-12.6 119.49-12.15 119.39-11.7L119.39-11.7 102.09-11.7Q102.14-9.45 102.79-7.53 103.44-5.6 104.62-4.23 105.79-2.85 107.44-2.08 109.09-1.3 111.14-1.3L111.14-1.3Q113.09-1.3 114.67-1.88 116.24-2.45 117.59-3.45L117.59-3.45 118.49-1.75Q117.04-0.9 115.32-0.15 113.59 0.6 110.94 0.6ZM102.09-13.5L102.09-13.5 117.39-13.5Q117.39-18.15 115.49-20.43 113.59-22.7 110.34-22.7L110.34-22.7Q108.79-22.7 107.39-22.08 105.99-21.45 104.87-20.25 103.74-19.05 103.02-17.35 102.29-15.65 102.09-13.5ZM145.79 5.85L121.99 5.85 121.99 3.95 145.79 3.95 145.79 5.85ZM149.59 0L147.24 0 157.14-17.05 147.94-32.95 150.44-32.95 155.84-23.25Q156.54-22.1 157.11-21.1 157.69-20.1 158.54-18.75L158.54-18.75 158.74-18.75Q159.44-20.1 159.96-21.1 160.49-22.1 161.19-23.25L161.19-23.25 166.59-32.95 168.94-32.95 159.74-16.95 169.64 0 167.14 0 161.39-10.1Q160.69-11.35 159.96-12.6 159.24-13.85 158.34-15.35L158.34-15.35 158.14-15.35Q157.34-13.85 156.69-12.6 156.04-11.35 155.34-10.1L155.34-10.1 149.59 0ZM177.63 0L175.33 0 175.33-32.95 177.63-32.95 177.63 0ZM189.63 0L187.33 0 187.33-32.95 189.63-32.95 189.63 0ZM201.63 0L199.33 0 199.33-32.95 201.63-32.95 201.63 0Z" opacity="1" transform="matrix(1,0,0,1,0,0)" fill="#ea3c12" class="wordmark-text-0" data-fill-palette-color="primary" id="text-0"></path></svg></g></svg></g><g transform="matrix(1,0,0,1,0,97.19279370901978)"><svg viewBox="0 0 232.20979200000002 21.939173875505677" height="21.939173875505677" width="232.20979200000002"><g transform="matrix(1,0,0,1,0,0)"><svg width="232.20979200000002" viewBox="1.2 -35.6 383.11 36.2" height="21.939173875505677" data-palette-color="#aaaaaa"><path d="M12.75 0L7.95 0 1.2-24.3 5.4-24.3 9-10.25Q9.4-8.5 9.75-6.85 10.1-5.2 10.45-3.5L10.45-3.5 10.65-3.5Q11.05-5.2 11.45-6.88 11.85-8.55 12.3-10.25L12.3-10.25 16.05-24.3 20.05-24.3 23.85-10.25Q24.3-8.5 24.73-6.85 25.15-5.2 25.55-3.5L25.55-3.5 25.75-3.5Q26.15-5.2 26.5-6.85 26.85-8.5 27.25-10.25L27.25-10.25 30.8-24.3 34.7-24.3 28.2 0 23.2 0 19.7-13.05Q19.25-14.8 18.88-16.5 18.5-18.2 18.05-20.05L18.05-20.05 17.85-20.05Q17.45-18.2 17.05-16.48 16.65-14.75 16.15-13L16.15-13 12.75 0ZM44.1 0L40 0 40-24.3 44.1-24.3 44.1 0ZM42.1-29.3L42.1-29.3Q40.9-29.3 40.07-30.05 39.25-30.8 39.25-31.95L39.25-31.95Q39.25-33.15 40.07-33.88 40.9-34.6 42.1-34.6L42.1-34.6Q43.3-34.6 44.12-33.88 44.95-33.15 44.95-31.95L44.95-31.95Q44.95-30.8 44.12-30.05 43.3-29.3 42.1-29.3ZM59.95 0.6L59.95 0.6Q58 0.6 56.67 0 55.35-0.6 54.52-1.65 53.7-2.7 53.35-4.2 53-5.7 53-7.5L53-7.5 53-20.95 49.4-20.95 49.4-24.05 53.2-24.3 53.7-31.1 57.15-31.1 57.15-24.3 63.7-24.3 63.7-20.95 57.15-20.95 57.15-7.45Q57.15-5.2 57.97-3.98 58.8-2.75 60.9-2.75L60.9-2.75Q61.55-2.75 62.3-2.95 63.05-3.15 63.65-3.4L63.65-3.4 64.45-0.3Q63.45 0.05 62.27 0.33 61.1 0.6 59.95 0.6ZM73.29 0L69.19 0 69.19-35.6 73.29-35.6 73.29-25.9 73.14-20.9Q74.89-22.55 76.79-23.73 78.69-24.9 81.24-24.9L81.24-24.9Q85.09-24.9 86.87-22.5 88.64-20.1 88.64-15.4L88.64-15.4 88.64 0 84.54 0 84.54-14.85Q84.54-18.3 83.44-19.83 82.34-21.35 79.94-21.35L79.94-21.35Q78.04-21.35 76.59-20.4 75.14-19.45 73.29-17.6L73.29-17.6 73.29 0ZM105.84 0.6L105.84 0.6Q103.59 0.6 101.57-0.25 99.54-1.1 97.99-2.73 96.44-4.35 95.52-6.73 94.59-9.1 94.59-12.1L94.59-12.1Q94.59-15.15 95.52-17.53 96.44-19.9 97.99-21.55 99.54-23.2 101.57-24.05 103.59-24.9 105.84-24.9L105.84-24.9Q108.09-24.9 110.12-24.05 112.14-23.2 113.69-21.55 115.24-19.9 116.17-17.53 117.09-15.15 117.09-12.1L117.09-12.1Q117.09-9.1 116.17-6.73 115.24-4.35 113.69-2.73 112.14-1.1 110.12-0.25 108.09 0.6 105.84 0.6ZM105.84-2.8L105.84-2.8Q107.39-2.8 108.69-3.48 109.99-4.15 110.92-5.38 111.84-6.6 112.34-8.3 112.84-10 112.84-12.1L112.84-12.1Q112.84-14.2 112.34-15.93 111.84-17.65 110.92-18.9 109.99-20.15 108.69-20.83 107.39-21.5 105.84-21.5L105.84-21.5Q104.29-21.5 102.99-20.83 101.69-20.15 100.77-18.9 99.84-17.65 99.34-15.93 98.84-14.2 98.84-12.1L98.84-12.1Q98.84-10 99.34-8.3 99.84-6.6 100.77-5.38 101.69-4.15 102.99-3.48 104.29-2.8 105.84-2.8ZM130.59 0.6L130.59 0.6Q126.69 0.6 124.91-1.8 123.14-4.2 123.14-8.9L123.14-8.9 123.14-24.3 127.29-24.3 127.29-9.45Q127.29-6 128.36-4.48 129.44-2.95 131.84-2.95L131.84-2.95Q133.74-2.95 135.19-3.93 136.64-4.9 138.39-7.05L138.39-7.05 138.39-24.3 142.49-24.3 142.49 0 139.09 0 138.74-3.8 138.59-3.8Q136.89-1.8 135.01-0.6 133.14 0.6 130.59 0.6ZM158.34 0.6L158.34 0.6Q156.39 0.6 155.06 0 153.74-0.6 152.91-1.65 152.09-2.7 151.74-4.2 151.39-5.7 151.39-7.5L151.39-7.5 151.39-20.95 147.79-20.95 147.79-24.05 151.59-24.3 152.09-31.1 155.54-31.1 155.54-24.3 162.09-24.3 162.09-20.95 155.54-20.95 155.54-7.45Q155.54-5.2 156.36-3.98 157.19-2.75 159.29-2.75L159.29-2.75Q159.94-2.75 160.69-2.95 161.44-3.15 162.04-3.4L162.04-3.4 162.84-0.3Q161.84 0.05 160.66 0.33 159.49 0.6 158.34 0.6ZM188.33 0.6L188.33 0.6Q186.63 0.6 184.81-0.23 182.98-1.05 181.38-2.5L181.38-2.5 181.23-2.5 180.88 0 177.58 0 177.58-35.6 181.68-35.6 181.68-25.9 181.58-21.5Q183.23-22.95 185.18-23.93 187.13-24.9 189.18-24.9L189.18-24.9Q191.53-24.9 193.33-24.03 195.13-23.15 196.36-21.53 197.58-19.9 198.21-17.63 198.83-15.35 198.83-12.55L198.83-12.55Q198.83-9.45 197.98-7 197.13-4.55 195.68-2.85 194.23-1.15 192.33-0.28 190.43 0.6 188.33 0.6ZM187.63-2.85L187.63-2.85Q189.13-2.85 190.41-3.53 191.68-4.2 192.61-5.43 193.53-6.65 194.06-8.45 194.58-10.25 194.58-12.5L194.58-12.5Q194.58-14.5 194.23-16.15 193.88-17.8 193.11-18.98 192.33-20.15 191.11-20.8 189.88-21.45 188.18-21.45L188.18-21.45Q185.23-21.45 181.68-18.15L181.68-18.15 181.68-5.4Q183.28-4 184.86-3.43 186.43-2.85 187.63-2.85ZM214.68 0.6L214.68 0.6Q212.43 0.6 210.4-0.25 208.38-1.1 206.83-2.73 205.28-4.35 204.35-6.73 203.43-9.1 203.43-12.1L203.43-12.1Q203.43-15.15 204.35-17.53 205.28-19.9 206.83-21.55 208.38-23.2 210.4-24.05 212.43-24.9 214.68-24.9L214.68-24.9Q216.93-24.9 218.95-24.05 220.98-23.2 222.53-21.55 224.08-19.9 225-17.53 225.93-15.15 225.93-12.1L225.93-12.1Q225.93-9.1 225-6.73 224.08-4.35 222.53-2.73 220.98-1.1 218.95-0.25 216.93 0.6 214.68 0.6ZM214.68-2.8L214.68-2.8Q216.23-2.8 217.53-3.48 218.83-4.15 219.75-5.38 220.68-6.6 221.18-8.3 221.68-10 221.68-12.1L221.68-12.1Q221.68-14.2 221.18-15.93 220.68-17.65 219.75-18.9 218.83-20.15 217.53-20.83 216.23-21.5 214.68-21.5L214.68-21.5Q213.13-21.5 211.83-20.83 210.53-20.15 209.6-18.9 208.68-17.65 208.18-15.93 207.68-14.2 207.68-12.1L207.68-12.1Q207.68-10 208.18-8.3 208.68-6.6 209.6-5.38 210.53-4.15 211.83-3.48 213.13-2.8 214.68-2.8ZM239.43 0.6L239.43 0.6Q235.53 0.6 233.75-1.8 231.98-4.2 231.98-8.9L231.98-8.9 231.98-24.3 236.13-24.3 236.13-9.45Q236.13-6 237.2-4.48 238.28-2.95 240.68-2.95L240.68-2.95Q242.58-2.95 244.03-3.93 245.48-4.9 247.23-7.05L247.23-7.05 247.23-24.3 251.33-24.3 251.33 0 247.93 0 247.58-3.8 247.43-3.8Q245.73-1.8 243.85-0.6 241.98 0.6 239.43 0.6ZM263.62 0L259.52 0 259.52-24.3 262.92-24.3 263.27-20.8 263.42-20.8Q265.17-22.55 267.1-23.73 269.02-24.9 271.57-24.9L271.57-24.9Q275.42-24.9 277.2-22.5 278.97-20.1 278.97-15.4L278.97-15.4 278.97 0 274.87 0 274.87-14.85Q274.87-18.3 273.77-19.83 272.67-21.35 270.27-21.35L270.27-21.35Q268.37-21.35 266.92-20.4 265.47-19.45 263.62-17.6L263.62-17.6 263.62 0ZM295.17 0.6L295.17 0.6Q290.57 0.6 287.85-2.7 285.12-6 285.12-12.1L285.12-12.1Q285.12-15.05 286-17.43 286.87-19.8 288.32-21.45 289.77-23.1 291.67-24 293.57-24.9 295.67-24.9L295.67-24.9Q297.77-24.9 299.32-24.15 300.87-23.4 302.47-22.1L302.47-22.1 302.27-26.25 302.27-35.6 306.42-35.6 306.42 0 303.02 0 302.67-2.85 302.52-2.85Q301.07-1.45 299.2-0.43 297.32 0.6 295.17 0.6ZM296.07-2.85L296.07-2.85Q297.77-2.85 299.27-3.68 300.77-4.5 302.27-6.2L302.27-6.2 302.27-18.9Q300.72-20.3 299.3-20.88 297.87-21.45 296.37-21.45L296.37-21.45Q294.92-21.45 293.65-20.78 292.37-20.1 291.42-18.88 290.47-17.65 289.92-15.95 289.37-14.25 289.37-12.15L289.37-12.15Q289.37-7.75 291.12-5.3 292.87-2.85 296.07-2.85ZM318.72 0L314.62 0 314.62-24.3 318.02-24.3 318.37-19.9 318.52-19.9Q319.77-22.2 321.54-23.55 323.32-24.9 325.42-24.9L325.42-24.9Q326.87-24.9 328.02-24.4L328.02-24.4 327.22-20.8Q326.62-21 326.12-21.1 325.62-21.2 324.87-21.2L324.87-21.2Q323.32-21.2 321.64-19.95 319.97-18.7 318.72-15.6L318.72-15.6 318.72 0ZM336.07 0L331.97 0 331.97-24.3 336.07-24.3 336.07 0ZM334.07-29.3L334.07-29.3Q332.87-29.3 332.04-30.05 331.22-30.8 331.22-31.95L331.22-31.95Q331.22-33.15 332.04-33.88 332.87-34.6 334.07-34.6L334.07-34.6Q335.27-34.6 336.09-33.88 336.92-33.15 336.92-31.95L336.92-31.95Q336.92-30.8 336.09-30.05 335.27-29.3 334.07-29.3ZM354.11 0.6L354.11 0.6Q351.66 0.6 349.54-0.28 347.41-1.15 345.84-2.78 344.26-4.4 343.36-6.75 342.46-9.1 342.46-12.1L342.46-12.1Q342.46-15.1 343.39-17.48 344.31-19.85 345.84-21.5 347.36-23.15 349.31-24.03 351.26-24.9 353.36-24.9L353.36-24.9Q355.66-24.9 357.49-24.1 359.31-23.3 360.54-21.8 361.76-20.3 362.41-18.2 363.06-16.1 363.06-13.5L363.06-13.5Q363.06-12.85 363.04-12.23 363.01-11.6 362.91-11.15L362.91-11.15 346.51-11.15Q346.76-7.25 348.94-4.98 351.11-2.7 354.61-2.7L354.61-2.7Q356.36-2.7 357.84-3.23 359.31-3.75 360.66-4.6L360.66-4.6 362.11-1.9Q360.51-0.9 358.56-0.15 356.61 0.6 354.11 0.6ZM346.46-14.1L346.46-14.1 359.46-14.1Q359.46-17.8 357.89-19.73 356.31-21.65 353.46-21.65L353.46-21.65Q352.16-21.65 350.99-21.15 349.81-20.65 348.86-19.68 347.91-18.7 347.29-17.3 346.66-15.9 346.46-14.1ZM375.41 0.6L375.41 0.6Q372.81 0.6 370.46-0.35 368.11-1.3 366.36-2.75L366.36-2.75 368.41-5.5Q370.01-4.2 371.69-3.4 373.36-2.6 375.56-2.6L375.56-2.6Q377.96-2.6 379.16-3.7 380.36-4.8 380.36-6.4L380.36-6.4Q380.36-7.35 379.86-8.05 379.36-8.75 378.59-9.28 377.81-9.8 376.81-10.2 375.81-10.6 374.81-11L374.81-11Q373.51-11.45 372.21-12.03 370.91-12.6 369.89-13.43 368.86-14.25 368.21-15.35 367.56-16.45 367.56-18L367.56-18Q367.56-19.45 368.14-20.73 368.71-22 369.79-22.93 370.86-23.85 372.41-24.38 373.96-24.9 375.91-24.9L375.91-24.9Q378.21-24.9 380.14-24.1 382.06-23.3 383.46-22.15L383.46-22.15 381.51-19.55Q380.26-20.5 378.91-21.1 377.56-21.7 375.96-21.7L375.96-21.7Q373.66-21.7 372.59-20.65 371.51-19.6 371.51-18.2L371.51-18.2Q371.51-17.35 371.96-16.73 372.41-16.1 373.16-15.63 373.91-15.15 374.89-14.78 375.86-14.4 376.91-14L376.91-14Q378.21-13.5 379.54-12.95 380.86-12.4 381.91-11.58 382.96-10.75 383.64-9.55 384.31-8.35 384.31-6.65L384.31-6.65Q384.31-5.15 383.74-3.85 383.16-2.55 382.04-1.55 380.91-0.55 379.24 0.03 377.56 0.6 375.41 0.6Z" opacity="1" transform="matrix(1,0,0,1,0,0)" fill="#aaaaaa" class="slogan-text-1" data-fill-palette-color="secondary" id="text-1"></path></svg></g></svg></g></svg></g></svg></g><g><svg viewBox="0 0 245.65351679999995 216.4224347093821" height="216.4224347093821" width="245.65351679999995"><g><svg xmlns="http://www.w3.org/2000/svg" xmlns:xlink="http://www.w3.org/1999/xlink" version="1.1" x="0" y="0" viewBox="6.3 11.5 87.4 77" style="enable-background:new 0 0 100 100;" xml:space="preserve" height="216.4224347093821" width="245.65351679999995" class="icon-icon-0" data-fill-palette-color="accent" id="icon-0"><path d="M72.3 12.3L72.3 12.3 72.3 12.3l-0.4-0.8H28.2L6.3 50l21.8 38.5h43.7L93.7 50 72.3 12.3zM33.3 25.3L9.9 47.7l18.6-32.8L33.3 25.3zM70.7 14.8l6.4 35.7L36.9 25.8 70.7 14.8zM35.5 27.3l41 25.2-41 23.3V27.3zM77 54.5l-7.2 30.8-32.6-8.1L77 54.5zM33.5 75L9.9 50.5l23.6-22.7V75zM33.2 77.6l-4.6 7.7L11.5 55.1 33.2 77.6zM35 78.6l31.4 7.9H30.2L35 78.6zM79.3 53.3l11.6-2.5L72.1 84 79.3 53.3zM90.7 48.9l-11.4 2.5-5.9-33.1L90.7 48.9zM35 24.3l-5-10.8h38.2L35 24.3z" fill="#ea9937" data-fill-palette-color="accent"></path></svg></g></svg></g></svg></g><defs></defs></svg><rect width="395.52" height="129.54588146840885" fill="none" stroke="none" visibility="hidden"></rect></g></svg></g></svg>